<svg width="410" height="114" viewBox="0 0 410 114" fill="none" xmlns="http://www.w3.org/2000/svg">
<path d="M202.21 62.5614H188.474C186.938 71.3488 180.198 77.4915 171.496 77.4915C161.002 77.4915 153.921 69.1306 153.921 57.1012C153.921 45.1571 161.002 36.8815 171.496 36.8815C180.198 36.8815 187.023 42.9389 188.474 51.7263H202.21C200.077 36.0283 187.45 25.2786 171.325 25.2786C154.092 25.2786 140.612 39.185 140.612 57.1012C140.612 75.1027 154.092 89.0944 171.325 89.0944C187.45 89.0944 200.077 78.43 202.21 62.5614Z" fill="black"/>
<path d="M253.41 65.0355C253.41 51.7263 243.428 41.4032 230.29 41.4032C217.066 41.4032 207.169 51.7263 207.169 65.0355C207.169 78.2594 217.066 88.6678 230.29 88.6678C243.428 88.6678 253.41 78.2594 253.41 65.0355ZM219.369 65.0355C219.369 56.5893 224.403 51.9823 230.29 51.9823C236.176 51.9823 241.125 56.5893 241.125 65.0355C241.125 73.4817 236.176 78.1741 230.29 78.1741C224.318 78.1741 219.369 73.4817 219.369 65.0355Z" fill="black"/>
<path d="M272.841 87.8147V26.5583H260.982V87.8147H272.841Z" fill="black"/>
<path d="M326.645 65.0355C326.645 51.7263 316.663 41.4032 303.524 41.4032C290.3 41.4032 280.404 51.7263 280.404 65.0355C280.404 78.2594 290.3 88.6678 303.524 88.6678C316.663 88.6678 326.645 78.2594 326.645 65.0355ZM292.604 65.0355C292.604 56.5893 297.637 51.9823 303.524 51.9823C309.411 51.9823 314.359 56.5893 314.359 65.0355C314.359 73.4817 309.411 78.1741 303.524 78.1741C297.552 78.1741 292.604 73.4817 292.604 65.0355Z" fill="black"/>
<path d="M345.563 65.718C345.563 55.6508 352.388 53.1767 362.456 54.0298V42.0857C354.863 41.3179 347.952 45.2424 344.625 51.0438V42.2563H333.79V87.8147H345.563V65.718Z" fill="black"/>
<path d="M410 42.2563H398.141L387.647 73.4817L376.3 42.2563H363.503L381.334 87.3028L374.935 104.281H387.732L410 42.2563Z" fill="black"/>
<path fill-rule="evenodd" clip-rule="evenodd" d="M110.734 69.7366H85.554C79.8811 91.0815 60.4238 106.809 37.293 106.809C33.9657 106.809 30.7143 106.484 27.5691 105.863C35.925 110.876 45.6746 113.754 56.0869 113.754C82.7016 113.754 104.987 94.9548 110.734 69.7366ZM72.3097 69.7366C67.0711 83.9969 53.3701 94.1701 37.293 94.1701C16.7742 94.1701 0.125691 77.599 0.0004598 57.1096C0.000153363 57.0321 0 56.9545 0 56.8768C0 56.7992 0.000153278 56.7217 0.000459544 56.6441C0.125669 36.1547 16.7741 19.5836 37.293 19.5836C53.3701 19.5836 67.0711 29.7568 72.3097 44.0171H72.2465C68.7144 40.0708 63.5815 37.5872 57.8686 37.5872C47.2152 37.5872 38.579 46.2235 38.579 56.8769C38.579 67.5302 47.2152 76.1665 57.8686 76.1665C63.5816 76.1665 68.7145 73.6829 72.2465 69.7366H72.3097ZM85.554 44.0171C79.881 22.6722 60.4238 6.94428 37.293 6.94428C33.9656 6.94428 30.7143 7.26974 27.569 7.89056C35.925 2.87728 45.6746 0 56.0869 0C82.7016 0 104.987 18.7989 110.734 44.0171H85.554Z" fill="url(#paint0_linear_6_0)"/>
<defs>
<linearGradient id="paint0_linear_6_0" x1="91.2675" y1="35.7134" x2="25.1316" y2="80.6858" gradientUnits="userSpaceOnUse">
<stop stop-color="#9847FF"/>
<stop offset="1" stop-color="#E82C38"/>
</linearGradient>
</defs>
</svg>
